<svg width="54" height="58" viewBox="0 0 54 58" fill="none" xmlns="http://www.w3.org/2000/svg">
<path d="M39.8755 56.8243C40.3937 57.4706 41.3377 57.5745 41.9841 57.0563L52.517 48.612C53.1634 48.0938 53.2673 47.1497 52.7491 46.5034C52.2309 45.857 51.2868 45.7531 50.6405 46.2713L41.2779 53.7774L33.7718 44.4148C33.2536 43.7685 32.3095 43.6646 31.6632 44.1828C31.0168 44.701 30.9129 45.645 31.4311 46.2914L39.8755 56.8243ZM1.03668 3.43849C22.5583 2.91805 32.6782 8.50498 37.2917 17.4368C39.6506 22.0035 40.6694 27.6118 40.8614 34.1122C41.0533 40.6098 40.4179 47.8801 39.5548 55.7219L42.5368 56.0501C43.4009 48.1989 44.0587 40.7478 43.8601 34.0236C43.6615 27.3022 42.606 21.1882 39.9572 16.06C34.5552 5.60186 22.9252 -0.0916994 0.964151 0.439369L1.03668 3.43849Z" fill="url(#paint0_linear_210_1949)"/>
<defs>
<linearGradient id="paint0_linear_210_1949" x1="75.5" y1="65.5" x2="-6" y2="-2.5" gradientUnits="userSpaceOnUse">
<stop stop-color="#FF005C"/>
<stop offset="1" stop-color="#1A91FF" stop-opacity="0.62"/>
</linearGradient>
</defs>
</svg>
