<svg width="1440" height="490" viewBox="0 0 1440 490" fill="none" xmlns="http://www.w3.org/2000/svg">
<g opacity="0.19">
<path d="M-1674.35 149.442L-1282.63 23.0426C-1194.78 -5.30457 -1100.24 -5.30457 -1012.39 23.0426L-755.794 105.842C-667.945 134.189 -573.41 134.189 -485.56 105.842L-228.96 23.0426C-141.11 -5.30457 -46.57 -5.30457 41.28 23.0426L297.88 105.842C385.73 134.189 480.27 134.189 568.12 105.842L824.72 23.0426C912.57 -5.30457 1007.11 -5.30457 1094.96 23.0426L1351.56 105.842C1439.41 134.189 1533.94 134.189 1621.79 105.842L1878.39 23.0426C1966.24 -5.30457 2060.78 -5.30457 2148.63 23.0426L2540.35 149.442" stroke="url(#paint0_radial_83_837)"/>
<path d="M-1674.35 169.442L-1282.63 43.0426C-1194.78 14.6954 -1100.24 14.6954 -1012.39 43.0426L-755.794 125.842C-667.945 154.189 -573.41 154.189 -485.56 125.842L-228.96 43.0426C-141.11 14.6954 -46.57 14.6954 41.28 43.0426L297.88 125.842C385.73 154.189 480.27 154.189 568.12 125.842L824.72 43.0426C912.57 14.6954 1007.11 14.6954 1094.96 43.0426L1351.56 125.842C1439.41 154.189 1533.94 154.189 1621.79 125.842L1878.39 43.0426C1966.24 14.6954 2060.78 14.6954 2148.63 43.0426L2540.35 169.442" stroke="url(#paint1_radial_83_837)"/>
<path d="M-1674.35 189.442L-1282.63 63.0426C-1194.78 34.6954 -1100.24 34.6954 -1012.39 63.0426L-755.794 145.842C-667.945 174.189 -573.41 174.189 -485.56 145.842L-228.96 63.0426C-141.11 34.6954 -46.57 34.6954 41.28 63.0426L297.88 145.842C385.73 174.189 480.27 174.189 568.12 145.842L824.72 63.0426C912.57 34.6954 1007.11 34.6954 1094.96 63.0426L1351.56 145.842C1439.41 174.189 1533.94 174.189 1621.79 145.842L1878.39 63.0426C1966.24 34.6954 2060.78 34.6954 2148.63 63.0426L2540.35 189.442" stroke="url(#paint2_radial_83_837)"/>
<path d="M-1674.35 209.442L-1282.63 83.0429C-1194.78 54.6953 -1100.24 54.6953 -1012.39 83.0429L-755.794 165.842C-667.945 194.189 -573.41 194.189 -485.56 165.842L-228.96 83.0429C-141.11 54.6953 -46.57 54.6953 41.28 83.0429L297.88 165.842C385.73 194.189 480.27 194.189 568.12 165.842L824.72 83.0429C912.57 54.6953 1007.11 54.6953 1094.96 83.0429L1351.56 165.842C1439.41 194.189 1533.94 194.189 1621.79 165.842L1878.39 83.0429C1966.24 54.6953 2060.78 54.6953 2148.63 83.0429L2540.35 209.442" stroke="url(#paint3_radial_83_837)"/>
<path d="M-1674.35 229.442L-1282.63 103.043C-1194.78 74.6953 -1100.24 74.6953 -1012.39 103.043L-755.794 185.842C-667.945 214.189 -573.41 214.189 -485.56 185.842L-228.96 103.043C-141.11 74.6953 -46.57 74.6953 41.28 103.043L297.88 185.842C385.73 214.189 480.27 214.189 568.12 185.842L824.72 103.043C912.57 74.6953 1007.11 74.6953 1094.96 103.043L1351.56 185.842C1439.41 214.189 1533.94 214.189 1621.79 185.842L1878.39 103.043C1966.24 74.6953 2060.78 74.6953 2148.63 103.043L2540.35 229.442" stroke="url(#paint4_radial_83_837)"/>
<path d="M-1674.35 249.442L-1282.63 123.043C-1194.78 94.695 -1100.24 94.695 -1012.39 123.043L-755.794 205.842C-667.945 234.189 -573.41 234.189 -485.56 205.842L-228.96 123.043C-141.11 94.695 -46.57 94.695 41.28 123.043L297.88 205.842C385.73 234.189 480.27 234.189 568.12 205.842L824.72 123.043C912.57 94.695 1007.11 94.695 1094.96 123.043L1351.56 205.842C1439.41 234.189 1533.94 234.189 1621.79 205.842L1878.39 123.043C1966.24 94.695 2060.78 94.695 2148.63 123.043L2540.35 249.442" stroke="url(#paint5_radial_83_837)"/>
<path d="M-1674.35 269.442L-1282.63 143.043C-1194.78 114.695 -1100.24 114.695 -1012.39 143.043L-755.794 225.842C-667.945 254.189 -573.41 254.189 -485.56 225.842L-228.96 143.043C-141.11 114.695 -46.57 114.695 41.28 143.043L297.88 225.842C385.73 254.189 480.27 254.189 568.12 225.842L824.72 143.043C912.57 114.695 1007.11 114.695 1094.96 143.043L1351.56 225.842C1439.41 254.189 1533.94 254.189 1621.79 225.842L1878.39 143.043C1966.24 114.695 2060.78 114.695 2148.63 143.043L2540.35 269.442" stroke="url(#paint6_radial_83_837)"/>
<path d="M-1674.35 289.442L-1282.63 163.043C-1194.78 134.695 -1100.24 134.695 -1012.39 163.043L-755.794 245.842C-667.945 274.189 -573.41 274.189 -485.56 245.842L-228.96 163.043C-141.11 134.695 -46.57 134.695 41.28 163.043L297.88 245.842C385.73 274.189 480.27 274.189 568.12 245.842L824.72 163.043C912.57 134.695 1007.11 134.695 1094.96 163.043L1351.56 245.842C1439.41 274.189 1533.94 274.189 1621.79 245.842L1878.39 163.043C1966.24 134.695 2060.78 134.695 2148.63 163.043L2540.35 289.442" stroke="url(#paint7_radial_83_837)"/>
<path d="M-1674.35 309.442L-1282.63 183.043C-1194.78 154.695 -1100.24 154.695 -1012.39 183.043L-755.794 265.842C-667.945 294.189 -573.41 294.189 -485.56 265.842L-228.96 183.043C-141.11 154.695 -46.57 154.695 41.28 183.043L297.88 265.842C385.73 294.189 480.27 294.189 568.12 265.842L824.72 183.043C912.57 154.695 1007.11 154.695 1094.96 183.043L1351.56 265.842C1439.41 294.189 1533.94 294.189 1621.79 265.842L1878.39 183.043C1966.24 154.695 2060.78 154.695 2148.63 183.043L2540.35 309.442" stroke="url(#paint8_radial_83_837)"/>
<path d="M-1674.35 329.442L-1282.63 203.043C-1194.78 174.695 -1100.24 174.695 -1012.39 203.043L-755.794 285.842C-667.945 314.189 -573.41 314.189 -485.56 285.842L-228.96 203.043C-141.11 174.695 -46.57 174.695 41.28 203.043L297.88 285.842C385.73 314.189 480.27 314.189 568.12 285.842L824.72 203.043C912.57 174.695 1007.11 174.695 1094.96 203.043L1351.56 285.842C1439.41 314.189 1533.94 314.189 1621.79 285.842L1878.39 203.043C1966.24 174.695 2060.78 174.695 2148.63 203.043L2540.35 329.442" stroke="url(#paint9_radial_83_837)"/>
<path d="M-1674.35 349.442L-1282.63 223.043C-1194.78 194.695 -1100.24 194.695 -1012.39 223.043L-755.794 305.842C-667.945 334.189 -573.41 334.189 -485.56 305.842L-228.96 223.043C-141.11 194.695 -46.57 194.695 41.28 223.043L297.88 305.842C385.73 334.189 480.27 334.189 568.12 305.842L824.72 223.043C912.57 194.695 1007.11 194.695 1094.96 223.043L1351.56 305.842C1439.41 334.189 1533.94 334.189 1621.79 305.842L1878.39 223.043C1966.24 194.695 2060.78 194.695 2148.63 223.043L2540.35 349.442" stroke="url(#paint10_radial_83_837)"/>
<path d="M-1674.35 369.442L-1282.63 243.043C-1194.78 214.695 -1100.24 214.695 -1012.39 243.043L-755.794 325.842C-667.945 354.189 -573.41 354.189 -485.56 325.842L-228.96 243.043C-141.11 214.695 -46.57 214.695 41.28 243.043L297.88 325.842C385.73 354.189 480.27 354.189 568.12 325.842L824.72 243.043C912.57 214.695 1007.11 214.695 1094.96 243.043L1351.56 325.842C1439.41 354.189 1533.94 354.189 1621.79 325.842L1878.39 243.043C1966.24 214.695 2060.78 214.695 2148.63 243.043L2540.35 369.442" stroke="url(#paint11_radial_83_837)"/>
<path d="M-1674.35 389.442L-1282.63 263.043C-1194.78 234.695 -1100.24 234.695 -1012.39 263.043L-755.794 345.842C-667.945 374.189 -573.41 374.189 -485.56 345.842L-228.96 263.043C-141.11 234.695 -46.57 234.695 41.28 263.043L297.88 345.842C385.73 374.189 480.27 374.189 568.12 345.842L824.72 263.043C912.57 234.695 1007.11 234.695 1094.96 263.043L1351.56 345.842C1439.41 374.189 1533.94 374.189 1621.79 345.842L1878.39 263.043C1966.24 234.695 2060.78 234.695 2148.63 263.043L2540.35 389.442" stroke="url(#paint12_radial_83_837)"/>
<path d="M-1674.35 409.442L-1282.63 283.043C-1194.78 254.695 -1100.24 254.695 -1012.39 283.043L-755.794 365.842C-667.945 394.189 -573.41 394.189 -485.56 365.842L-228.96 283.043C-141.11 254.695 -46.57 254.695 41.28 283.043L297.88 365.842C385.73 394.189 480.27 394.189 568.12 365.842L824.72 283.043C912.57 254.695 1007.11 254.695 1094.96 283.043L1351.56 365.842C1439.41 394.189 1533.94 394.189 1621.79 365.842L1878.39 283.043C1966.24 254.695 2060.78 254.695 2148.63 283.043L2540.35 409.442" stroke="url(#paint13_radial_83_837)"/>
<path d="M-1674.35 429.442L-1282.63 303.043C-1194.78 274.695 -1100.24 274.695 -1012.39 303.043L-755.794 385.842C-667.945 414.189 -573.41 414.189 -485.56 385.842L-228.96 303.043C-141.11 274.695 -46.57 274.695 41.28 303.043L297.88 385.842C385.73 414.189 480.27 414.189 568.12 385.842L824.72 303.043C912.57 274.695 1007.11 274.695 1094.96 303.043L1351.56 385.842C1439.41 414.189 1533.94 414.189 1621.79 385.842L1878.39 303.043C1966.24 274.695 2060.78 274.695 2148.63 303.043L2540.35 429.442" stroke="url(#paint14_radial_83_837)"/>
<path d="M-1674.35 449.442L-1282.63 323.043C-1194.78 294.695 -1100.24 294.695 -1012.39 323.043L-755.794 405.842C-667.945 434.189 -573.41 434.189 -485.56 405.842L-228.96 323.043C-141.11 294.695 -46.57 294.695 41.28 323.043L297.88 405.842C385.73 434.189 480.27 434.189 568.12 405.842L824.72 323.043C912.57 294.695 1007.11 294.695 1094.96 323.043L1351.56 405.842C1439.41 434.189 1533.94 434.189 1621.79 405.842L1878.39 323.043C1966.24 294.695 2060.78 294.695 2148.63 323.043L2540.35 449.442" stroke="url(#paint15_radial_83_837)"/>
<path d="M-1674.35 469.442L-1282.63 343.043C-1194.78 314.695 -1100.24 314.695 -1012.39 343.043L-755.794 425.842C-667.945 454.189 -573.41 454.189 -485.56 425.842L-228.96 343.043C-141.11 314.695 -46.57 314.695 41.28 343.043L297.88 425.842C385.73 454.189 480.27 454.189 568.12 425.842L824.72 343.043C912.57 314.695 1007.11 314.695 1094.96 343.043L1351.56 425.842C1439.41 454.189 1533.94 454.189 1621.79 425.842L1878.39 343.043C1966.24 314.695 2060.78 314.695 2148.63 343.043L2540.35 469.442" stroke="url(#paint16_radial_83_837)"/>
<path d="M-1674.35 489.442L-1282.63 363.043C-1194.78 334.695 -1100.24 334.695 -1012.39 363.043L-755.794 445.842C-667.945 474.189 -573.41 474.189 -485.56 445.842L-228.96 363.043C-141.11 334.695 -46.57 334.695 41.28 363.043L297.88 445.842C385.73 474.189 480.27 474.189 568.12 445.842L824.72 363.043C912.57 334.695 1007.11 334.695 1094.96 363.043L1351.56 445.842C1439.41 474.189 1533.94 474.189 1621.79 445.842L1878.39 363.043C1966.24 334.695 2060.78 334.695 2148.63 363.043L2540.35 489.442" stroke="url(#paint17_radial_83_837)"/>
<path d="M-2202 149L-1810.28 22.6002C-1722.43 -5.74689 -1627.89 -5.74699 -1540.04 22.6002L-1283.44 105.4C-1195.59 133.747 -1101.06 133.747 -1013.21 105.4L-756.606 22.6002C-668.757 -5.74689 -574.22 -5.74699 -486.37 22.6002L-229.77 105.4C-141.92 133.747 -47.38 133.747 40.47 105.4L297.07 22.6002C384.92 -5.74689 479.46 -5.74699 567.31 22.6002L823.91 105.4C911.76 133.747 1006.29 133.747 1094.14 105.4L1350.74 22.6002C1438.59 -5.74689 1533.13 -5.74699 1620.98 22.6002L2012.7 149" stroke="url(#paint18_radial_83_837)"/>
<path d="M-2202 169L-1810.28 42.6002C-1722.43 14.2531 -1627.89 14.253 -1540.04 42.6002L-1283.44 125.4C-1195.59 153.747 -1101.06 153.747 -1013.21 125.4L-756.606 42.6002C-668.757 14.2531 -574.22 14.253 -486.37 42.6002L-229.77 125.4C-141.92 153.747 -47.38 153.747 40.47 125.4L297.07 42.6002C384.92 14.2531 479.46 14.253 567.31 42.6002L823.91 125.4C911.76 153.747 1006.29 153.747 1094.14 125.4L1350.74 42.6002C1438.59 14.2531 1533.13 14.253 1620.98 42.6002L2012.7 169" stroke="url(#paint19_radial_83_837)"/>
<path d="M-2202 189L-1810.28 62.6002C-1722.43 34.2531 -1627.89 34.253 -1540.04 62.6002L-1283.44 145.4C-1195.59 173.747 -1101.06 173.747 -1013.21 145.4L-756.606 62.6002C-668.757 34.2531 -574.22 34.253 -486.37 62.6002L-229.77 145.4C-141.92 173.747 -47.38 173.747 40.47 145.4L297.07 62.6002C384.92 34.2531 479.46 34.253 567.31 62.6002L823.91 145.4C911.76 173.747 1006.29 173.747 1094.14 145.4L1350.74 62.6002C1438.59 34.2531 1533.13 34.253 1620.98 62.6002L2012.7 189" stroke="url(#paint20_radial_83_837)"/>
<path d="M-2202 209L-1810.28 82.6001C-1722.43 54.2532 -1627.89 54.2531 -1540.04 82.6001L-1283.44 165.4C-1195.59 193.747 -1101.06 193.747 -1013.21 165.4L-756.606 82.6001C-668.757 54.2532 -574.22 54.2531 -486.37 82.6001L-229.77 165.4C-141.92 193.747 -47.38 193.747 40.47 165.4L297.07 82.6001C384.92 54.2532 479.46 54.2531 567.31 82.6001L823.91 165.4C911.76 193.747 1006.29 193.747 1094.14 165.4L1350.74 82.6001C1438.59 54.2532 1533.13 54.2531 1620.98 82.6001L2012.7 209" stroke="url(#paint21_radial_83_837)"/>
<path d="M-2202 229L-1810.28 102.6C-1722.43 74.2532 -1627.89 74.2531 -1540.04 102.6L-1283.44 185.4C-1195.59 213.747 -1101.06 213.747 -1013.21 185.4L-756.606 102.6C-668.757 74.2532 -574.22 74.2531 -486.37 102.6L-229.77 185.4C-141.92 213.747 -47.38 213.747 40.47 185.4L297.07 102.6C384.92 74.2532 479.46 74.2531 567.31 102.6L823.91 185.4C911.76 213.747 1006.29 213.747 1094.14 185.4L1350.74 102.6C1438.59 74.2532 1533.13 74.2531 1620.98 102.6L2012.7 229" stroke="url(#paint22_radial_83_837)"/>
<path d="M-2202 249L-1810.28 122.6C-1722.43 94.2531 -1627.89 94.2531 -1540.04 122.6L-1283.44 205.4C-1195.59 233.747 -1101.06 233.747 -1013.21 205.4L-756.606 122.6C-668.757 94.2531 -574.22 94.2531 -486.37 122.6L-229.77 205.4C-141.92 233.747 -47.38 233.747 40.47 205.4L297.07 122.6C384.92 94.2531 479.46 94.2531 567.31 122.6L823.91 205.4C911.76 233.747 1006.29 233.747 1094.14 205.4L1350.74 122.6C1438.59 94.2531 1533.13 94.2531 1620.98 122.6L2012.7 249" stroke="url(#paint23_radial_83_837)"/>
<path d="M-2202 269L-1810.28 142.6C-1722.43 114.253 -1627.89 114.253 -1540.04 142.6L-1283.44 225.4C-1195.59 253.747 -1101.06 253.747 -1013.21 225.4L-756.606 142.6C-668.757 114.253 -574.22 114.253 -486.37 142.6L-229.77 225.4C-141.92 253.747 -47.38 253.747 40.47 225.4L297.07 142.6C384.92 114.253 479.46 114.253 567.31 142.6L823.91 225.4C911.76 253.747 1006.29 253.747 1094.14 225.4L1350.74 142.6C1438.59 114.253 1533.13 114.253 1620.98 142.6L2012.7 269" stroke="url(#paint24_radial_83_837)"/>
<path d="M-2202 289L-1810.28 162.6C-1722.43 134.253 -1627.89 134.253 -1540.04 162.6L-1283.44 245.4C-1195.59 273.747 -1101.06 273.747 -1013.21 245.4L-756.606 162.6C-668.757 134.253 -574.22 134.253 -486.37 162.6L-229.77 245.4C-141.92 273.747 -47.38 273.747 40.47 245.4L297.07 162.6C384.92 134.253 479.46 134.253 567.31 162.6L823.91 245.4C911.76 273.747 1006.29 273.747 1094.14 245.4L1350.74 162.6C1438.59 134.253 1533.13 134.253 1620.98 162.6L2012.7 289" stroke="url(#paint25_radial_83_837)"/>
<path d="M-2202 309L-1810.28 182.6C-1722.43 154.253 -1627.89 154.253 -1540.04 182.6L-1283.44 265.4C-1195.59 293.747 -1101.06 293.747 -1013.21 265.4L-756.606 182.6C-668.757 154.253 -574.22 154.253 -486.37 182.6L-229.77 265.4C-141.92 293.747 -47.38 293.747 40.47 265.4L297.07 182.6C384.92 154.253 479.46 154.253 567.31 182.6L823.91 265.4C911.76 293.747 1006.29 293.747 1094.14 265.4L1350.74 182.6C1438.59 154.253 1533.13 154.253 1620.98 182.6L2012.7 309" stroke="url(#paint26_radial_83_837)"/>
<path d="M-2202 329L-1810.28 202.6C-1722.43 174.253 -1627.89 174.253 -1540.04 202.6L-1283.44 285.4C-1195.59 313.747 -1101.06 313.747 -1013.21 285.4L-756.606 202.6C-668.757 174.253 -574.22 174.253 -486.37 202.6L-229.77 285.4C-141.92 313.747 -47.38 313.747 40.47 285.4L297.07 202.6C384.92 174.253 479.46 174.253 567.31 202.6L823.91 285.4C911.76 313.747 1006.29 313.747 1094.14 285.4L1350.74 202.6C1438.59 174.253 1533.13 174.253 1620.98 202.6L2012.7 329" stroke="url(#paint27_radial_83_837)"/>
<path d="M-2202 349L-1810.28 222.6C-1722.43 194.253 -1627.89 194.253 -1540.04 222.6L-1283.44 305.4C-1195.59 333.747 -1101.06 333.747 -1013.21 305.4L-756.606 222.6C-668.757 194.253 -574.22 194.253 -486.37 222.6L-229.77 305.4C-141.92 333.747 -47.38 333.747 40.47 305.4L297.07 222.6C384.92 194.253 479.46 194.253 567.31 222.6L823.91 305.4C911.76 333.747 1006.29 333.747 1094.14 305.4L1350.74 222.6C1438.59 194.253 1533.13 194.253 1620.98 222.6L2012.7 349" stroke="url(#paint28_radial_83_837)"/>
<path d="M-2202 369L-1810.28 242.6C-1722.43 214.253 -1627.89 214.253 -1540.04 242.6L-1283.44 325.4C-1195.59 353.747 -1101.06 353.747 -1013.21 325.4L-756.606 242.6C-668.757 214.253 -574.22 214.253 -486.37 242.6L-229.77 325.4C-141.92 353.747 -47.38 353.747 40.47 325.4L297.07 242.6C384.92 214.253 479.46 214.253 567.31 242.6L823.91 325.4C911.76 353.747 1006.29 353.747 1094.14 325.4L1350.74 242.6C1438.59 214.253 1533.13 214.253 1620.98 242.6L2012.7 369" stroke="url(#paint29_radial_83_837)"/>
<path d="M-2202 389L-1810.28 262.6C-1722.43 234.253 -1627.89 234.253 -1540.04 262.6L-1283.44 345.4C-1195.59 373.747 -1101.06 373.747 -1013.21 345.4L-756.606 262.6C-668.757 234.253 -574.22 234.253 -486.37 262.6L-229.77 345.4C-141.92 373.747 -47.38 373.747 40.47 345.4L297.07 262.6C384.92 234.253 479.46 234.253 567.31 262.6L823.91 345.4C911.76 373.747 1006.29 373.747 1094.14 345.4L1350.74 262.6C1438.59 234.253 1533.13 234.253 1620.98 262.6L2012.7 389" stroke="url(#paint30_radial_83_837)"/>
<path d="M-2202 409L-1810.28 282.6C-1722.43 254.253 -1627.89 254.253 -1540.04 282.6L-1283.44 365.4C-1195.59 393.747 -1101.06 393.747 -1013.21 365.4L-756.606 282.6C-668.757 254.253 -574.22 254.253 -486.37 282.6L-229.77 365.4C-141.92 393.747 -47.38 393.747 40.47 365.4L297.07 282.6C384.92 254.253 479.46 254.253 567.31 282.6L823.91 365.4C911.76 393.747 1006.29 393.747 1094.14 365.4L1350.74 282.6C1438.59 254.253 1533.13 254.253 1620.98 282.6L2012.7 409" stroke="url(#paint31_radial_83_837)"/>
<path d="M-2202 429L-1810.28 302.6C-1722.43 274.253 -1627.89 274.253 -1540.04 302.6L-1283.44 385.4C-1195.59 413.747 -1101.06 413.747 -1013.21 385.4L-756.606 302.6C-668.757 274.253 -574.22 274.253 -486.37 302.6L-229.77 385.4C-141.92 413.747 -47.38 413.747 40.47 385.4L297.07 302.6C384.92 274.253 479.46 274.253 567.31 302.6L823.91 385.4C911.76 413.747 1006.29 413.747 1094.14 385.4L1350.74 302.6C1438.59 274.253 1533.13 274.253 1620.98 302.6L2012.7 429" stroke="url(#paint32_radial_83_837)"/>
<path d="M-2202 449L-1810.28 322.6C-1722.43 294.253 -1627.89 294.253 -1540.04 322.6L-1283.44 405.4C-1195.59 433.747 -1101.06 433.747 -1013.21 405.4L-756.606 322.6C-668.757 294.253 -574.22 294.253 -486.37 322.6L-229.77 405.4C-141.92 433.747 -47.38 433.747 40.47 405.4L297.07 322.6C384.92 294.253 479.46 294.253 567.31 322.6L823.91 405.4C911.76 433.747 1006.29 433.747 1094.14 405.4L1350.74 322.6C1438.59 294.253 1533.13 294.253 1620.98 322.6L2012.7 449" stroke="url(#paint33_radial_83_837)"/>
<path d="M-2202 469L-1810.28 342.6C-1722.43 314.253 -1627.89 314.253 -1540.04 342.6L-1283.44 425.4C-1195.59 453.747 -1101.06 453.747 -1013.21 425.4L-756.606 342.6C-668.757 314.253 -574.22 314.253 -486.37 342.6L-229.77 425.4C-141.92 453.747 -47.38 453.747 40.47 425.4L297.07 342.6C384.92 314.253 479.46 314.253 567.31 342.6L823.91 425.4C911.76 453.747 1006.29 453.747 1094.14 425.4L1350.74 342.6C1438.59 314.253 1533.13 314.253 1620.98 342.6L2012.7 469" stroke="url(#paint34_radial_83_837)"/>
<path d="M-2202 489L-1810.28 362.6C-1722.43 334.253 -1627.89 334.253 -1540.04 362.6L-1283.44 445.4C-1195.59 473.747 -1101.06 473.747 -1013.21 445.4L-756.606 362.6C-668.757 334.253 -574.22 334.253 -486.37 362.6L-229.77 445.4C-141.92 473.747 -47.38 473.747 40.47 445.4L297.07 362.6C384.92 334.253 479.46 334.253 567.31 362.6L823.91 445.4C911.76 473.747 1006.29 473.747 1094.14 445.4L1350.74 362.6C1438.59 334.253 1533.13 334.253 1620.98 362.6L2012.7 489" stroke="url(#paint35_radial_83_837)"/>
<path d="M-94 149L297.72 22.6002C385.57 -5.74689 480.11 -5.74699 567.96 22.6002L824.56 105.4C912.41 133.747 1006.94 133.747 1094.79 105.4L1351.39 22.6002C1439.24 -5.74689 1533.78 -5.74699 1621.63 22.6002L1878.23 105.4C1966.08 133.747 2060.62 133.747 2148.47 105.4L2405.07 22.6002C2492.92 -5.74689 2587.46 -5.74699 2675.31 22.6002L2931.91 105.4C3019.76 133.747 3114.29 133.747 3202.14 105.4L3458.74 22.6002C3546.59 -5.74689 3641.13 -5.74699 3728.98 22.6002L4120.7 149" stroke="#3BC0C3"/>
<path d="M-94 169L297.72 42.6002C385.57 14.2531 480.11 14.253 567.96 42.6002L824.56 125.4C912.41 153.747 1006.94 153.747 1094.79 125.4L1351.39 42.6002C1439.24 14.2531 1533.78 14.253 1621.63 42.6002L1878.23 125.4C1966.08 153.747 2060.62 153.747 2148.47 125.4L2405.07 42.6002C2492.92 14.2531 2587.46 14.253 2675.31 42.6002L2931.91 125.4C3019.76 153.747 3114.29 153.747 3202.14 125.4L3458.74 42.6002C3546.59 14.2531 3641.13 14.253 3728.98 42.6002L4120.7 169" stroke="#3BC0C3"/>
<path d="M-94 189L297.72 62.6002C385.57 34.2531 480.11 34.253 567.96 62.6002L824.56 145.4C912.41 173.747 1006.94 173.747 1094.79 145.4L1351.39 62.6002C1439.24 34.2531 1533.78 34.253 1621.63 62.6002L1878.23 145.4C1966.08 173.747 2060.62 173.747 2148.47 145.4L2405.07 62.6002C2492.92 34.2531 2587.46 34.253 2675.31 62.6002L2931.91 145.4C3019.76 173.747 3114.29 173.747 3202.14 145.4L3458.74 62.6002C3546.59 34.2531 3641.13 34.253 3728.98 62.6002L4120.7 189" stroke="#3BC0C3"/>
<path d="M-94 209L297.72 82.6001C385.57 54.2532 480.11 54.2531 567.96 82.6001L824.56 165.4C912.41 193.747 1006.94 193.747 1094.79 165.4L1351.39 82.6001C1439.24 54.2532 1533.78 54.2531 1621.63 82.6001L1878.23 165.4C1966.08 193.747 2060.62 193.747 2148.47 165.4L2405.07 82.6001C2492.92 54.2532 2587.46 54.2531 2675.31 82.6001L2931.91 165.4C3019.76 193.747 3114.29 193.747 3202.14 165.4L3458.74 82.6001C3546.59 54.2532 3641.13 54.2531 3728.98 82.6001L4120.7 209" stroke="#3BC0C3"/>
<path d="M-94 229L297.72 102.6C385.57 74.2532 480.11 74.2531 567.96 102.6L824.56 185.4C912.41 213.747 1006.94 213.747 1094.79 185.4L1351.39 102.6C1439.24 74.2532 1533.78 74.2531 1621.63 102.6L1878.23 185.4C1966.08 213.747 2060.62 213.747 2148.47 185.4L2405.07 102.6C2492.92 74.2532 2587.46 74.2531 2675.31 102.6L2931.91 185.4C3019.76 213.747 3114.29 213.747 3202.14 185.4L3458.74 102.6C3546.59 74.2532 3641.13 74.2531 3728.98 102.6L4120.7 229" stroke="#3BC0C3"/>
<path d="M-94 249L297.72 122.6C385.57 94.2531 480.11 94.2531 567.96 122.6L824.56 205.4C912.41 233.747 1006.94 233.747 1094.79 205.4L1351.39 122.6C1439.24 94.2531 1533.78 94.2531 1621.63 122.6L1878.23 205.4C1966.08 233.747 2060.62 233.747 2148.47 205.4L2405.07 122.6C2492.92 94.2531 2587.46 94.2531 2675.31 122.6L2931.91 205.4C3019.76 233.747 3114.29 233.747 3202.14 205.4L3458.74 122.6C3546.59 94.2531 3641.13 94.2531 3728.98 122.6L4120.7 249" stroke="#3BC0C3"/>
<path d="M-94 269L297.72 142.6C385.57 114.253 480.11 114.253 567.96 142.6L824.56 225.4C912.41 253.747 1006.94 253.747 1094.79 225.4L1351.39 142.6C1439.24 114.253 1533.78 114.253 1621.63 142.6L1878.23 225.4C1966.08 253.747 2060.62 253.747 2148.47 225.4L2405.07 142.6C2492.92 114.253 2587.46 114.253 2675.31 142.6L2931.91 225.4C3019.76 253.747 3114.29 253.747 3202.14 225.4L3458.74 142.6C3546.59 114.253 3641.13 114.253 3728.98 142.6L4120.7 269" stroke="#3BC0C3"/>
<path d="M-94 289L297.72 162.6C385.57 134.253 480.11 134.253 567.96 162.6L824.56 245.4C912.41 273.747 1006.94 273.747 1094.79 245.4L1351.39 162.6C1439.24 134.253 1533.78 134.253 1621.63 162.6L1878.23 245.4C1966.08 273.747 2060.62 273.747 2148.47 245.4L2405.07 162.6C2492.92 134.253 2587.46 134.253 2675.31 162.6L2931.91 245.4C3019.76 273.747 3114.29 273.747 3202.14 245.4L3458.74 162.6C3546.59 134.253 3641.13 134.253 3728.98 162.6L4120.7 289" stroke="#3BC0C3"/>
<path d="M-94 309L297.72 182.6C385.57 154.253 480.11 154.253 567.96 182.6L824.56 265.4C912.41 293.747 1006.94 293.747 1094.79 265.4L1351.39 182.6C1439.24 154.253 1533.78 154.253 1621.63 182.6L1878.23 265.4C1966.08 293.747 2060.62 293.747 2148.47 265.4L2405.07 182.6C2492.92 154.253 2587.46 154.253 2675.31 182.6L2931.91 265.4C3019.76 293.747 3114.29 293.747 3202.14 265.4L3458.74 182.6C3546.59 154.253 3641.13 154.253 3728.98 182.6L4120.7 309" stroke="#3BC0C3"/>
<path d="M-94 329L297.72 202.6C385.57 174.253 480.11 174.253 567.96 202.6L824.56 285.4C912.41 313.747 1006.94 313.747 1094.79 285.4L1351.39 202.6C1439.24 174.253 1533.78 174.253 1621.63 202.6L1878.23 285.4C1966.08 313.747 2060.62 313.747 2148.47 285.4L2405.07 202.6C2492.92 174.253 2587.46 174.253 2675.31 202.6L2931.91 285.4C3019.76 313.747 3114.29 313.747 3202.14 285.4L3458.74 202.6C3546.59 174.253 3641.13 174.253 3728.98 202.6L4120.7 329" stroke="#3BC0C3"/>
<path d="M-94 349L297.72 222.6C385.57 194.253 480.11 194.253 567.96 222.6L824.56 305.4C912.41 333.747 1006.94 333.747 1094.79 305.4L1351.39 222.6C1439.24 194.253 1533.78 194.253 1621.63 222.6L1878.23 305.4C1966.08 333.747 2060.62 333.747 2148.47 305.4L2405.07 222.6C2492.92 194.253 2587.46 194.253 2675.31 222.6L2931.91 305.4C3019.76 333.747 3114.29 333.747 3202.14 305.4L3458.74 222.6C3546.59 194.253 3641.13 194.253 3728.98 222.6L4120.7 349" stroke="#3BC0C3"/>
<path d="M-94 369L297.72 242.6C385.57 214.253 480.11 214.253 567.96 242.6L824.56 325.4C912.41 353.747 1006.94 353.747 1094.79 325.4L1351.39 242.6C1439.24 214.253 1533.78 214.253 1621.63 242.6L1878.23 325.4C1966.08 353.747 2060.62 353.747 2148.47 325.4L2405.07 242.6C2492.92 214.253 2587.46 214.253 2675.31 242.6L2931.91 325.4C3019.76 353.747 3114.29 353.747 3202.14 325.4L3458.74 242.6C3546.59 214.253 3641.13 214.253 3728.98 242.6L4120.7 369" stroke="#3BC0C3"/>
<path d="M-94 389L297.72 262.6C385.57 234.253 480.11 234.253 567.96 262.6L824.56 345.4C912.41 373.747 1006.94 373.747 1094.79 345.4L1351.39 262.6C1439.24 234.253 1533.78 234.253 1621.63 262.6L1878.23 345.4C1966.08 373.747 2060.62 373.747 2148.47 345.4L2405.07 262.6C2492.92 234.253 2587.46 234.253 2675.31 262.6L2931.91 345.4C3019.76 373.747 3114.29 373.747 3202.14 345.4L3458.74 262.6C3546.59 234.253 3641.13 234.253 3728.98 262.6L4120.7 389" stroke="#3BC0C3"/>
<path d="M-94 409L297.72 282.6C385.57 254.253 480.11 254.253 567.96 282.6L824.56 365.4C912.41 393.747 1006.94 393.747 1094.79 365.4L1351.39 282.6C1439.24 254.253 1533.78 254.253 1621.63 282.6L1878.23 365.4C1966.08 393.747 2060.62 393.747 2148.47 365.4L2405.07 282.6C2492.92 254.253 2587.46 254.253 2675.31 282.6L2931.91 365.4C3019.76 393.747 3114.29 393.747 3202.14 365.4L3458.74 282.6C3546.59 254.253 3641.13 254.253 3728.98 282.6L4120.7 409" stroke="#3BC0C3"/>
<path d="M-94 429L297.72 302.6C385.57 274.253 480.11 274.253 567.96 302.6L824.56 385.4C912.41 413.747 1006.94 413.747 1094.79 385.4L1351.39 302.6C1439.24 274.253 1533.78 274.253 1621.63 302.6L1878.23 385.4C1966.08 413.747 2060.62 413.747 2148.47 385.4L2405.07 302.6C2492.92 274.253 2587.46 274.253 2675.31 302.6L2931.91 385.4C3019.76 413.747 3114.29 413.747 3202.14 385.4L3458.74 302.6C3546.59 274.253 3641.13 274.253 3728.98 302.6L4120.7 429" stroke="#3BC0C3"/>
<path d="M-94 449L297.72 322.6C385.57 294.253 480.11 294.253 567.96 322.6L824.56 405.4C912.41 433.747 1006.94 433.747 1094.79 405.4L1351.39 322.6C1439.24 294.253 1533.78 294.253 1621.63 322.6L1878.23 405.4C1966.08 433.747 2060.62 433.747 2148.47 405.4L2405.07 322.6C2492.92 294.253 2587.46 294.253 2675.31 322.6L2931.91 405.4C3019.76 433.747 3114.29 433.747 3202.14 405.4L3458.74 322.6C3546.59 294.253 3641.13 294.253 3728.98 322.6L4120.7 449" stroke="#3BC0C3"/>
<path d="M-94 469L297.72 342.6C385.57 314.253 480.11 314.253 567.96 342.6L824.56 425.4C912.41 453.747 1006.94 453.747 1094.79 425.4L1351.39 342.6C1439.24 314.253 1533.78 314.253 1621.63 342.6L1878.23 425.4C1966.08 453.747 2060.62 453.747 2148.47 425.4L2405.07 342.6C2492.92 314.253 2587.46 314.253 2675.31 342.6L2931.91 425.4C3019.76 453.747 3114.29 453.747 3202.14 425.4L3458.74 342.6C3546.59 314.253 3641.13 314.253 3728.98 342.6L4120.7 469" stroke="#3BC0C3"/>
<path d="M-94 489L297.72 362.6C385.57 334.253 480.11 334.253 567.96 362.6L824.56 445.4C912.41 473.747 1006.94 473.747 1094.79 445.4L1351.39 362.6C1439.24 334.253 1533.78 334.253 1621.63 362.6L1878.23 445.4C1966.08 473.747 2060.62 473.747 2148.47 445.4L2405.07 362.6C2492.92 334.253 2587.46 334.253 2675.31 362.6L2931.91 445.4C3019.76 473.747 3114.29 473.747 3202.14 445.4L3458.74 362.6C3546.59 334.253 3641.13 334.253 3728.98 362.6L4120.7 489" stroke="#3BC0C3"/>
</g>
<defs>
<radialGradient id="paint0_radial_83_837" cx="0" cy="0" r="1" gradientUnits="userSpaceOnUse" gradientTransform="translate(3366.63 -20.5577) rotate(178.347) scale(5894.01 1951.63)">
<stop stop-color="#40DFA3"/>
<stop offset="0.396482" stop-color="#3498EA"/>
<stop offset="0.678051" stop-color="#6363F1"/>
<stop offset="0.96875" stop-color="#A163F1"/>
</radialGradient>
<radialGradient id="paint1_radial_83_837" cx="0" cy="0" r="1" gradientUnits="userSpaceOnUse" gradientTransform="translate(3366.63 -0.557745) rotate(178.347) scale(5894.01 1951.63)">
<stop stop-color="#40DFA3"/>
<stop offset="0.396482" stop-color="#3498EA"/>
<stop offset="0.678051" stop-color="#6363F1"/>
<stop offset="0.96875" stop-color="#A163F1"/>
</radialGradient>
<radialGradient id="paint2_radial_83_837" cx="0" cy="0" r="1" gradientUnits="userSpaceOnUse" gradientTransform="translate(3366.63 19.4423) rotate(178.347) scale(5894.01 1951.63)">
<stop stop-color="#40DFA3"/>
<stop offset="0.396482" stop-color="#3498EA"/>
<stop offset="0.678051" stop-color="#6363F1"/>
<stop offset="0.96875" stop-color="#A163F1"/>
</radialGradient>
<radialGradient id="paint3_radial_83_837" cx="0" cy="0" r="1" gradientUnits="userSpaceOnUse" gradientTransform="translate(3366.63 39.4423) rotate(178.347) scale(5894.01 1951.63)">
<stop stop-color="#40DFA3"/>
<stop offset="0.396482" stop-color="#3498EA"/>
<stop offset="0.678051" stop-color="#6363F1"/>
<stop offset="0.96875" stop-color="#A163F1"/>
</radialGradient>
<radialGradient id="paint4_radial_83_837" cx="0" cy="0" r="1" gradientUnits="userSpaceOnUse" gradientTransform="translate(3366.63 59.4423) rotate(178.347) scale(5894.01 1951.63)">
<stop stop-color="#40DFA3"/>
<stop offset="0.396482" stop-color="#3498EA"/>
<stop offset="0.678051" stop-color="#6363F1"/>
<stop offset="0.96875" stop-color="#A163F1"/>
</radialGradient>
<radialGradient id="paint5_radial_83_837" cx="0" cy="0" r="1" gradientUnits="userSpaceOnUse" gradientTransform="translate(3366.63 79.442) rotate(178.347) scale(5894.01 1951.63)">
<stop stop-color="#40DFA3"/>
<stop offset="0.396482" stop-color="#3498EA"/>
<stop offset="0.678051" stop-color="#6363F1"/>
<stop offset="0.96875" stop-color="#A163F1"/>
</radialGradient>
<radialGradient id="paint6_radial_83_837" cx="0" cy="0" r="1" gradientUnits="userSpaceOnUse" gradientTransform="translate(3366.63 99.442) rotate(178.347) scale(5894.01 1951.63)">
<stop stop-color="#40DFA3"/>
<stop offset="0.396482" stop-color="#3498EA"/>
<stop offset="0.678051" stop-color="#6363F1"/>
<stop offset="0.96875" stop-color="#A163F1"/>
</radialGradient>
<radialGradient id="paint7_radial_83_837" cx="0" cy="0" r="1" gradientUnits="userSpaceOnUse" gradientTransform="translate(3366.63 119.442) rotate(178.347) scale(5894.01 1951.63)">
<stop stop-color="#40DFA3"/>
<stop offset="0.396482" stop-color="#3498EA"/>
<stop offset="0.678051" stop-color="#6363F1"/>
<stop offset="0.96875" stop-color="#A163F1"/>
</radialGradient>
<radialGradient id="paint8_radial_83_837" cx="0" cy="0" r="1" gradientUnits="userSpaceOnUse" gradientTransform="translate(3366.63 139.442) rotate(178.347) scale(5894.01 1951.63)">
<stop stop-color="#40DFA3"/>
<stop offset="0.396482" stop-color="#3498EA"/>
<stop offset="0.678051" stop-color="#6363F1"/>
<stop offset="0.96875" stop-color="#A163F1"/>
</radialGradient>
<radialGradient id="paint9_radial_83_837" cx="0" cy="0" r="1" gradientUnits="userSpaceOnUse" gradientTransform="translate(3366.63 159.442) rotate(178.347) scale(5894.01 1951.63)">
<stop stop-color="#40DFA3"/>
<stop offset="0.396482" stop-color="#3498EA"/>
<stop offset="0.678051" stop-color="#6363F1"/>
<stop offset="0.96875" stop-color="#A163F1"/>
</radialGradient>
<radialGradient id="paint10_radial_83_837" cx="0" cy="0" r="1" gradientUnits="userSpaceOnUse" gradientTransform="translate(3366.63 179.442) rotate(178.347) scale(5894.01 1951.63)">
<stop stop-color="#40DFA3"/>
<stop offset="0.396482" stop-color="#3498EA"/>
<stop offset="0.678051" stop-color="#6363F1"/>
<stop offset="0.96875" stop-color="#A163F1"/>
</radialGradient>
<radialGradient id="paint11_radial_83_837" cx="0" cy="0" r="1" gradientUnits="userSpaceOnUse" gradientTransform="translate(3366.63 199.442) rotate(178.347) scale(5894.01 1951.63)">
<stop stop-color="#40DFA3"/>
<stop offset="0.396482" stop-color="#3498EA"/>
<stop offset="0.678051" stop-color="#6363F1"/>
<stop offset="0.96875" stop-color="#A163F1"/>
</radialGradient>
<radialGradient id="paint12_radial_83_837" cx="0" cy="0" r="1" gradientUnits="userSpaceOnUse" gradientTransform="translate(3366.63 219.442) rotate(178.347) scale(5894.01 1951.63)">
<stop stop-color="#40DFA3"/>
<stop offset="0.396482" stop-color="#3498EA"/>
<stop offset="0.678051" stop-color="#6363F1"/>
<stop offset="0.96875" stop-color="#A163F1"/>
</radialGradient>
<radialGradient id="paint13_radial_83_837" cx="0" cy="0" r="1" gradientUnits="userSpaceOnUse" gradientTransform="translate(3366.63 239.442) rotate(178.347) scale(5894.01 1951.63)">
<stop stop-color="#40DFA3"/>
<stop offset="0.396482" stop-color="#3498EA"/>
<stop offset="0.678051" stop-color="#6363F1"/>
<stop offset="0.96875" stop-color="#A163F1"/>
</radialGradient>
<radialGradient id="paint14_radial_83_837" cx="0" cy="0" r="1" gradientUnits="userSpaceOnUse" gradientTransform="translate(3366.63 259.442) rotate(178.347) scale(5894.01 1951.63)">
<stop stop-color="#40DFA3"/>
<stop offset="0.396482" stop-color="#3498EA"/>
<stop offset="0.678051" stop-color="#6363F1"/>
<stop offset="0.96875" stop-color="#A163F1"/>
</radialGradient>
<radialGradient id="paint15_radial_83_837" cx="0" cy="0" r="1" gradientUnits="userSpaceOnUse" gradientTransform="translate(3366.63 279.442) rotate(178.347) scale(5894.01 1951.63)">
<stop stop-color="#40DFA3"/>
<stop offset="0.396482" stop-color="#3498EA"/>
<stop offset="0.678051" stop-color="#6363F1"/>
<stop offset="0.96875" stop-color="#A163F1"/>
</radialGradient>
<radialGradient id="paint16_radial_83_837" cx="0" cy="0" r="1" gradientUnits="userSpaceOnUse" gradientTransform="translate(3366.63 299.442) rotate(178.347) scale(5894.01 1951.63)">
<stop stop-color="#40DFA3"/>
<stop offset="0.396482" stop-color="#3498EA"/>
<stop offset="0.678051" stop-color="#6363F1"/>
<stop offset="0.96875" stop-color="#A163F1"/>
</radialGradient>
<radialGradient id="paint17_radial_83_837" cx="0" cy="0" r="1" gradientUnits="userSpaceOnUse" gradientTransform="translate(3366.63 319.442) rotate(178.347) scale(5894.01 1951.63)">
<stop stop-color="#40DFA3"/>
<stop offset="0.396482" stop-color="#3498EA"/>
<stop offset="0.678051" stop-color="#6363F1"/>
<stop offset="0.96875" stop-color="#A163F1"/>
</radialGradient>
<radialGradient id="paint18_radial_83_837" cx="0" cy="0" r="1" gradientUnits="userSpaceOnUse" gradientTransform="translate(2838.98 -21.0001) rotate(178.347) scale(5894.01 1951.63)">
<stop stop-color="#40DFA3"/>
<stop offset="0.396482" stop-color="#3498EA"/>
<stop offset="0.678051" stop-color="#6363F1"/>
<stop offset="0.96875" stop-color="#A163F1"/>
</radialGradient>
<radialGradient id="paint19_radial_83_837" cx="0" cy="0" r="1" gradientUnits="userSpaceOnUse" gradientTransform="translate(2838.98 -1.00013) rotate(178.347) scale(5894.01 1951.63)">
<stop stop-color="#40DFA3"/>
<stop offset="0.396482" stop-color="#3498EA"/>
<stop offset="0.678051" stop-color="#6363F1"/>
<stop offset="0.96875" stop-color="#A163F1"/>
</radialGradient>
<radialGradient id="paint20_radial_83_837" cx="0" cy="0" r="1" gradientUnits="userSpaceOnUse" gradientTransform="translate(2838.98 18.9999) rotate(178.347) scale(5894.01 1951.63)">
<stop stop-color="#40DFA3"/>
<stop offset="0.396482" stop-color="#3498EA"/>
<stop offset="0.678051" stop-color="#6363F1"/>
<stop offset="0.96875" stop-color="#A163F1"/>
</radialGradient>
<radialGradient id="paint21_radial_83_837" cx="0" cy="0" r="1" gradientUnits="userSpaceOnUse" gradientTransform="translate(2838.98 38.9999) rotate(178.347) scale(5894.01 1951.63)">
<stop stop-color="#40DFA3"/>
<stop offset="0.396482" stop-color="#3498EA"/>
<stop offset="0.678051" stop-color="#6363F1"/>
<stop offset="0.96875" stop-color="#A163F1"/>
</radialGradient>
<radialGradient id="paint22_radial_83_837" cx="0" cy="0" r="1" gradientUnits="userSpaceOnUse" gradientTransform="translate(2838.98 58.9999) rotate(178.347) scale(5894.01 1951.63)">
<stop stop-color="#40DFA3"/>
<stop offset="0.396482" stop-color="#3498EA"/>
<stop offset="0.678051" stop-color="#6363F1"/>
<stop offset="0.96875" stop-color="#A163F1"/>
</radialGradient>
<radialGradient id="paint23_radial_83_837" cx="0" cy="0" r="1" gradientUnits="userSpaceOnUse" gradientTransform="translate(2838.98 78.9999) rotate(178.347) scale(5894.01 1951.63)">
<stop stop-color="#40DFA3"/>
<stop offset="0.396482" stop-color="#3498EA"/>
<stop offset="0.678051" stop-color="#6363F1"/>
<stop offset="0.96875" stop-color="#A163F1"/>
</radialGradient>
<radialGradient id="paint24_radial_83_837" cx="0" cy="0" r="1" gradientUnits="userSpaceOnUse" gradientTransform="translate(2838.98 99.0001) rotate(178.347) scale(5894.01 1951.63)">
<stop stop-color="#40DFA3"/>
<stop offset="0.396482" stop-color="#3498EA"/>
<stop offset="0.678051" stop-color="#6363F1"/>
<stop offset="0.96875" stop-color="#A163F1"/>
</radialGradient>
<radialGradient id="paint25_radial_83_837" cx="0" cy="0" r="1" gradientUnits="userSpaceOnUse" gradientTransform="translate(2838.98 119) rotate(178.347) scale(5894.01 1951.63)">
<stop stop-color="#40DFA3"/>
<stop offset="0.396482" stop-color="#3498EA"/>
<stop offset="0.678051" stop-color="#6363F1"/>
<stop offset="0.96875" stop-color="#A163F1"/>
</radialGradient>
<radialGradient id="paint26_radial_83_837" cx="0" cy="0" r="1" gradientUnits="userSpaceOnUse" gradientTransform="translate(2838.98 139) rotate(178.347) scale(5894.01 1951.63)">
<stop stop-color="#40DFA3"/>
<stop offset="0.396482" stop-color="#3498EA"/>
<stop offset="0.678051" stop-color="#6363F1"/>
<stop offset="0.96875" stop-color="#A163F1"/>
</radialGradient>
<radialGradient id="paint27_radial_83_837" cx="0" cy="0" r="1" gradientUnits="userSpaceOnUse" gradientTransform="translate(2838.98 159) rotate(178.347) scale(5894.01 1951.63)">
<stop stop-color="#40DFA3"/>
<stop offset="0.396482" stop-color="#3498EA"/>
<stop offset="0.678051" stop-color="#6363F1"/>
<stop offset="0.96875" stop-color="#A163F1"/>
</radialGradient>
<radialGradient id="paint28_radial_83_837" cx="0" cy="0" r="1" gradientUnits="userSpaceOnUse" gradientTransform="translate(2838.98 179) rotate(178.347) scale(5894.01 1951.63)">
<stop stop-color="#40DFA3"/>
<stop offset="0.396482" stop-color="#3498EA"/>
<stop offset="0.678051" stop-color="#6363F1"/>
<stop offset="0.96875" stop-color="#A163F1"/>
</radialGradient>
<radialGradient id="paint29_radial_83_837" cx="0" cy="0" r="1" gradientUnits="userSpaceOnUse" gradientTransform="translate(2838.98 199) rotate(178.347) scale(5894.01 1951.63)">
<stop stop-color="#40DFA3"/>
<stop offset="0.396482" stop-color="#3498EA"/>
<stop offset="0.678051" stop-color="#6363F1"/>
<stop offset="0.96875" stop-color="#A163F1"/>
</radialGradient>
<radialGradient id="paint30_radial_83_837" cx="0" cy="0" r="1" gradientUnits="userSpaceOnUse" gradientTransform="translate(2838.98 219) rotate(178.347) scale(5894.01 1951.63)">
<stop stop-color="#40DFA3"/>
<stop offset="0.396482" stop-color="#3498EA"/>
<stop offset="0.678051" stop-color="#6363F1"/>
<stop offset="0.96875" stop-color="#A163F1"/>
</radialGradient>
<radialGradient id="paint31_radial_83_837" cx="0" cy="0" r="1" gradientUnits="userSpaceOnUse" gradientTransform="translate(2838.98 239) rotate(178.347) scale(5894.01 1951.63)">
<stop stop-color="#40DFA3"/>
<stop offset="0.396482" stop-color="#3498EA"/>
<stop offset="0.678051" stop-color="#6363F1"/>
<stop offset="0.96875" stop-color="#A163F1"/>
</radialGradient>
<radialGradient id="paint32_radial_83_837" cx="0" cy="0" r="1" gradientUnits="userSpaceOnUse" gradientTransform="translate(2838.98 259) rotate(178.347) scale(5894.01 1951.63)">
<stop stop-color="#40DFA3"/>
<stop offset="0.396482" stop-color="#3498EA"/>
<stop offset="0.678051" stop-color="#6363F1"/>
<stop offset="0.96875" stop-color="#A163F1"/>
</radialGradient>
<radialGradient id="paint33_radial_83_837" cx="0" cy="0" r="1" gradientUnits="userSpaceOnUse" gradientTransform="translate(2838.98 279) rotate(178.347) scale(5894.01 1951.63)">
<stop stop-color="#40DFA3"/>
<stop offset="0.396482" stop-color="#3498EA"/>
<stop offset="0.678051" stop-color="#6363F1"/>
<stop offset="0.96875" stop-color="#A163F1"/>
</radialGradient>
<radialGradient id="paint34_radial_83_837" cx="0" cy="0" r="1" gradientUnits="userSpaceOnUse" gradientTransform="translate(2838.98 299) rotate(178.347) scale(5894.01 1951.63)">
<stop stop-color="#40DFA3"/>
<stop offset="0.396482" stop-color="#3498EA"/>
<stop offset="0.678051" stop-color="#6363F1"/>
<stop offset="0.96875" stop-color="#A163F1"/>
</radialGradient>
<radialGradient id="paint35_radial_83_837" cx="0" cy="0" r="1" gradientUnits="userSpaceOnUse" gradientTransform="translate(2838.98 319) rotate(178.347) scale(5894.01 1951.63)">
<stop stop-color="#40DFA3"/>
<stop offset="0.396482" stop-color="#3498EA"/>
<stop offset="0.678051" stop-color="#6363F1"/>
<stop offset="0.96875" stop-color="#A163F1"/>
</radialGradient>
</defs>
</svg>
